<?xml version="1.0" encoding="utf-8" standalone="no"?>
<!DOCTYPE svg PUBLIC "-//W3C//DTD SVG 1.1//EN"
  "http://www.w3.org/Graphics/SVG/1.1/DTD/svg11.dtd">
<svg xmlns:xlink="http://www.w3.org/1999/xlink" width="720pt" height="432pt" viewBox="0 0 720 432" xmlns="http://www.w3.org/2000/svg" version="1.1">
 <metadata>
  <rdf:RDF xmlns:dc="http://purl.org/dc/elements/1.1/" xmlns:cc="http://creativecommons.org/ns#" xmlns:rdf="http://www.w3.org/1999/02/22-rdf-syntax-ns#">
   <cc:Work>
    <dc:type rdf:resource="http://purl.org/dc/dcmitype/StillImage"/>
    <dc:date>2023-06-12T16:59:40.937805</dc:date>
    <dc:format>image/svg+xml</dc:format>
    <dc:creator>
     <cc:Agent>
      <dc:title>Matplotlib v3.7.1, https://matplotlib.org/</dc:title>
     </cc:Agent>
    </dc:creator>
   </cc:Work>
  </rdf:RDF>
 </metadata>
 <defs>
  <style type="text/css">*{stroke-linejoin: round; stroke-linecap: butt}</style>
 </defs>
 <g id="figure_1">
  <g id="patch_1">
   <path d="M 0 432 
L 720 432 
L 720 0 
L 0 0 
z
" style="fill: #ffffff"/>
  </g>
  <g id="axes_1">
   <g id="patch_2">
    <path d="M 71.84 390.04 
L 691.875 390.04 
L 691.875 10.8 
L 71.84 10.8 
z
" style="fill: #ffffff"/>
   </g>
   <g id="matplotlib.axis_1">
    <g id="xtick_1">
     <g id="line2d_1">
      <defs>
       <path id="m60b1866e07" d="M 0 0 
L 0 3.5 
" style="stroke: #000000; stroke-width: 0.8"/>
      </defs>
      <g>
       <use xlink:href="#m60b1866e07" x="71.84" y="390.04" style="stroke: #000000; stroke-width: 0.8"/>
      </g>
     </g>
     <g id="text_1">
      <!-- 0.0000 -->
      <g transform="translate(54.344688 404.638438) scale(0.1 -0.1)">
       <defs>
        <path id="DejaVuSans-30" d="M 2034 4250 
Q 1547 4250 1301 3770 
Q 1056 3291 1056 2328 
Q 1056 1369 1301 889 
Q 1547 409 2034 409 
Q 2525 409 2770 889 
Q 3016 1369 3016 2328 
Q 3016 3291 2770 3770 
Q 2525 4250 2034 4250 
z
M 2034 4750 
Q 2819 4750 3233 4129 
Q 3647 3509 3647 2328 
Q 3647 1150 3233 529 
Q 2819 -91 2034 -91 
Q 1250 -91 836 529 
Q 422 1150 422 2328 
Q 422 3509 836 4129 
Q 1250 4750 2034 4750 
z
" transform="scale(0.015625)"/>
        <path id="DejaVuSans-2e" d="M 684 794 
L 1344 794 
L 1344 0 
L 684 0 
L 684 794 
z
" transform="scale(0.015625)"/>
       </defs>
       <use xlink:href="#DejaVuSans-30"/>
       <use xlink:href="#DejaVuSans-2e" x="63.623047"/>
       <use xlink:href="#DejaVuSans-30" x="95.410156"/>
       <use xlink:href="#DejaVuSans-30" x="159.033203"/>
       <use xlink:href="#DejaVuSans-30" x="222.65625"/>
       <use xlink:href="#DejaVuSans-30" x="286.279297"/>
      </g>
     </g>
    </g>
    <g id="xtick_2">
     <g id="line2d_2">
      <g>
       <use xlink:href="#m60b1866e07" x="149.344375" y="390.04" style="stroke: #000000; stroke-width: 0.8"/>
      </g>
     </g>
     <g id="text_2">
      <!-- 0.0025 -->
      <g transform="translate(131.849063 404.638438) scale(0.1 -0.1)">
       <defs>
        <path id="DejaVuSans-32" d="M 1228 531 
L 3431 531 
L 3431 0 
L 469 0 
L 469 531 
Q 828 903 1448 1529 
Q 2069 2156 2228 2338 
Q 2531 2678 2651 2914 
Q 2772 3150 2772 3378 
Q 2772 3750 2511 3984 
Q 2250 4219 1831 4219 
Q 1534 4219 1204 4116 
Q 875 4013 500 3803 
L 500 4441 
Q 881 4594 1212 4672 
Q 1544 4750 1819 4750 
Q 2544 4750 2975 4387 
Q 3406 4025 3406 3419 
Q 3406 3131 3298 2873 
Q 3191 2616 2906 2266 
Q 2828 2175 2409 1742 
Q 1991 1309 1228 531 
z
" transform="scale(0.015625)"/>
        <path id="DejaVuSans-35" d="M 691 4666 
L 3169 4666 
L 3169 4134 
L 1269 4134 
L 1269 2991 
Q 1406 3038 1543 3061 
Q 1681 3084 1819 3084 
Q 2600 3084 3056 2656 
Q 3513 2228 3513 1497 
Q 3513 744 3044 326 
Q 2575 -91 1722 -91 
Q 1428 -91 1123 -41 
Q 819 9 494 109 
L 494 744 
Q 775 591 1075 516 
Q 1375 441 1709 441 
Q 2250 441 2565 725 
Q 2881 1009 2881 1497 
Q 2881 1984 2565 2268 
Q 2250 2553 1709 2553 
Q 1456 2553 1204 2497 
Q 953 2441 691 2322 
L 691 4666 
z
" transform="scale(0.015625)"/>
       </defs>
       <use xlink:href="#DejaVuSans-30"/>
       <use xlink:href="#DejaVuSans-2e" x="63.623047"/>
       <use xlink:href="#DejaVuSans-30" x="95.410156"/>
       <use xlink:href="#DejaVuSans-30" x="159.033203"/>
       <use xlink:href="#DejaVuSans-32" x="222.65625"/>
       <use xlink:href="#DejaVuSans-35" x="286.279297"/>
      </g>
     </g>
    </g>
    <g id="xtick_3">
     <g id="line2d_3">
      <g>
       <use xlink:href="#m60b1866e07" x="226.84875" y="390.04" style="stroke: #000000; stroke-width: 0.8"/>
      </g>
     </g>
     <g id="text_3">
      <!-- 0.0050 -->
      <g transform="translate(209.353437 404.638438) scale(0.1 -0.1)">
       <use xlink:href="#DejaVuSans-30"/>
       <use xlink:href="#DejaVuSans-2e" x="63.623047"/>
       <use xlink:href="#DejaVuSans-30" x="95.410156"/>
       <use xlink:href="#DejaVuSans-30" x="159.033203"/>
       <use xlink:href="#DejaVuSans-35" x="222.65625"/>
       <use xlink:href="#DejaVuSans-30" x="286.279297"/>
      </g>
     </g>
    </g>
    <g id="xtick_4">
     <g id="line2d_4">
      <g>
       <use xlink:href="#m60b1866e07" x="304.353125" y="390.04" style="stroke: #000000; stroke-width: 0.8"/>
      </g>
     </g>
     <g id="text_4">
      <!-- 0.0075 -->
      <g transform="translate(286.857812 404.638438) scale(0.1 -0.1)">
       <defs>
        <path id="DejaVuSans-37" d="M 525 4666 
L 3525 4666 
L 3525 4397 
L 1831 0 
L 1172 0 
L 2766 4134 
L 525 4134 
L 525 4666 
z
" transform="scale(0.015625)"/>
       </defs>
       <use xlink:href="#DejaVuSans-30"/>
       <use xlink:href="#DejaVuSans-2e" x="63.623047"/>
       <use xlink:href="#DejaVuSans-30" x="95.410156"/>
       <use xlink:href="#DejaVuSans-30" x="159.033203"/>
       <use xlink:href="#DejaVuSans-37" x="222.65625"/>
       <use xlink:href="#DejaVuSans-35" x="286.279297"/>
      </g>
     </g>
    </g>
    <g id="xtick_5">
     <g id="line2d_5">
      <g>
       <use xlink:href="#m60b1866e07" x="381.8575" y="390.04" style="stroke: #000000; stroke-width: 0.8"/>
      </g>
     </g>
     <g id="text_5">
      <!-- 0.0100 -->
      <g transform="translate(364.362187 404.638438) scale(0.1 -0.1)">
       <defs>
        <path id="DejaVuSans-31" d="M 794 531 
L 1825 531 
L 1825 4091 
L 703 3866 
L 703 4441 
L 1819 4666 
L 2450 4666 
L 2450 531 
L 3481 531 
L 3481 0 
L 794 0 
L 794 531 
z
" transform="scale(0.015625)"/>
       </defs>
       <use xlink:href="#DejaVuSans-30"/>
       <use xlink:href="#DejaVuSans-2e" x="63.623047"/>
       <use xlink:href="#DejaVuSans-30" x="95.410156"/>
       <use xlink:href="#DejaVuSans-31" x="159.033203"/>
       <use xlink:href="#DejaVuSans-30" x="222.65625"/>
       <use xlink:href="#DejaVuSans-30" x="286.279297"/>
      </g>
     </g>
    </g>
    <g id="xtick_6">
     <g id="line2d_6">
      <g>
       <use xlink:href="#m60b1866e07" x="459.361875" y="390.04" style="stroke: #000000; stroke-width: 0.8"/>
      </g>
     </g>
     <g id="text_6">
      <!-- 0.0125 -->
      <g transform="translate(441.866563 404.638438) scale(0.1 -0.1)">
       <use xlink:href="#DejaVuSans-30"/>
       <use xlink:href="#DejaVuSans-2e" x="63.623047"/>
       <use xlink:href="#DejaVuSans-30" x="95.410156"/>
       <use xlink:href="#DejaVuSans-31" x="159.033203"/>
       <use xlink:href="#DejaVuSans-32" x="222.65625"/>
       <use xlink:href="#DejaVuSans-35" x="286.279297"/>
      </g>
     </g>
    </g>
    <g id="xtick_7">
     <g id="line2d_7">
      <g>
       <use xlink:href="#m60b1866e07" x="536.86625" y="390.04" style="stroke: #000000; stroke-width: 0.8"/>
      </g>
     </g>
     <g id="text_7">
      <!-- 0.0150 -->
      <g transform="translate(519.370938 404.638438) scale(0.1 -0.1)">
       <use xlink:href="#DejaVuSans-30"/>
       <use xlink:href="#DejaVuSans-2e" x="63.623047"/>
       <use xlink:href="#DejaVuSans-30" x="95.410156"/>
       <use xlink:href="#DejaVuSans-31" x="159.033203"/>
       <use xlink:href="#DejaVuSans-35" x="222.65625"/>
       <use xlink:href="#DejaVuSans-30" x="286.279297"/>
      </g>
     </g>
    </g>
    <g id="xtick_8">
     <g id="line2d_8">
      <g>
       <use xlink:href="#m60b1866e07" x="614.370625" y="390.04" style="stroke: #000000; stroke-width: 0.8"/>
      </g>
     </g>
     <g id="text_8">
      <!-- 0.0175 -->
      <g transform="translate(596.875313 404.638438) scale(0.1 -0.1)">
       <use xlink:href="#DejaVuSans-30"/>
       <use xlink:href="#DejaVuSans-2e" x="63.623047"/>
       <use xlink:href="#DejaVuSans-30" x="95.410156"/>
       <use xlink:href="#DejaVuSans-31" x="159.033203"/>
       <use xlink:href="#DejaVuSans-37" x="222.65625"/>
       <use xlink:href="#DejaVuSans-35" x="286.279297"/>
      </g>
     </g>
    </g>
    <g id="xtick_9">
     <g id="line2d_9">
      <g>
       <use xlink:href="#m60b1866e07" x="691.875" y="390.04" style="stroke: #000000; stroke-width: 0.8"/>
      </g>
     </g>
     <g id="text_9">
      <!-- 0.0200 -->
      <g transform="translate(674.379688 404.638438) scale(0.1 -0.1)">
       <use xlink:href="#DejaVuSans-30"/>
       <use xlink:href="#DejaVuSans-2e" x="63.623047"/>
       <use xlink:href="#DejaVuSans-30" x="95.410156"/>
       <use xlink:href="#DejaVuSans-32" x="159.033203"/>
       <use xlink:href="#DejaVuSans-30" x="222.65625"/>
       <use xlink:href="#DejaVuSans-30" x="286.279297"/>
      </g>
     </g>
    </g>
    <g id="text_10">
     <!-- Time (s) -->
     <g transform="translate(361.528594 418.316562) scale(0.1 -0.1)">
      <defs>
       <path id="DejaVuSans-54" d="M -19 4666 
L 3928 4666 
L 3928 4134 
L 2272 4134 
L 2272 0 
L 1638 0 
L 1638 4134 
L -19 4134 
L -19 4666 
z
" transform="scale(0.015625)"/>
       <path id="DejaVuSans-69" d="M 603 3500 
L 1178 3500 
L 1178 0 
L 603 0 
L 603 3500 
z
M 603 4863 
L 1178 4863 
L 1178 4134 
L 603 4134 
L 603 4863 
z
" transform="scale(0.015625)"/>
       <path id="DejaVuSans-6d" d="M 3328 2828 
Q 3544 3216 3844 3400 
Q 4144 3584 4550 3584 
Q 5097 3584 5394 3201 
Q 5691 2819 5691 2113 
L 5691 0 
L 5113 0 
L 5113 2094 
Q 5113 2597 4934 2840 
Q 4756 3084 4391 3084 
Q 3944 3084 3684 2787 
Q 3425 2491 3425 1978 
L 3425 0 
L 2847 0 
L 2847 2094 
Q 2847 2600 2669 2842 
Q 2491 3084 2119 3084 
Q 1678 3084 1418 2786 
Q 1159 2488 1159 1978 
L 1159 0 
L 581 0 
L 581 3500 
L 1159 3500 
L 1159 2956 
Q 1356 3278 1631 3431 
Q 1906 3584 2284 3584 
Q 2666 3584 2933 3390 
Q 3200 3197 3328 2828 
z
" transform="scale(0.015625)"/>
       <path id="DejaVuSans-65" d="M 3597 1894 
L 3597 1613 
L 953 1613 
Q 991 1019 1311 708 
Q 1631 397 2203 397 
Q 2534 397 2845 478 
Q 3156 559 3463 722 
L 3463 178 
Q 3153 47 2828 -22 
Q 2503 -91 2169 -91 
Q 1331 -91 842 396 
Q 353 884 353 1716 
Q 353 2575 817 3079 
Q 1281 3584 2069 3584 
Q 2775 3584 3186 3129 
Q 3597 2675 3597 1894 
z
M 3022 2063 
Q 3016 2534 2758 2815 
Q 2500 3097 2075 3097 
Q 1594 3097 1305 2825 
Q 1016 2553 972 2059 
L 3022 2063 
z
" transform="scale(0.015625)"/>
       <path id="DejaVuSans-20" transform="scale(0.015625)"/>
       <path id="DejaVuSans-28" d="M 1984 4856 
Q 1566 4138 1362 3434 
Q 1159 2731 1159 2009 
Q 1159 1288 1364 580 
Q 1569 -128 1984 -844 
L 1484 -844 
Q 1016 -109 783 600 
Q 550 1309 550 2009 
Q 550 2706 781 3412 
Q 1013 4119 1484 4856 
L 1984 4856 
z
" transform="scale(0.015625)"/>
       <path id="DejaVuSans-73" d="M 2834 3397 
L 2834 2853 
Q 2591 2978 2328 3040 
Q 2066 3103 1784 3103 
Q 1356 3103 1142 2972 
Q 928 2841 928 2578 
Q 928 2378 1081 2264 
Q 1234 2150 1697 2047 
L 1894 2003 
Q 2506 1872 2764 1633 
Q 3022 1394 3022 966 
Q 3022 478 2636 193 
Q 2250 -91 1575 -91 
Q 1294 -91 989 -36 
Q 684 19 347 128 
L 347 722 
Q 666 556 975 473 
Q 1284 391 1588 391 
Q 1994 391 2212 530 
Q 2431 669 2431 922 
Q 2431 1156 2273 1281 
Q 2116 1406 1581 1522 
L 1381 1569 
Q 847 1681 609 1914 
Q 372 2147 372 2553 
Q 372 3047 722 3315 
Q 1072 3584 1716 3584 
Q 2034 3584 2315 3537 
Q 2597 3491 2834 3397 
z
" transform="scale(0.015625)"/>
       <path id="DejaVuSans-29" d="M 513 4856 
L 1013 4856 
Q 1481 4119 1714 3412 
Q 1947 2706 1947 2009 
Q 1947 1309 1714 600 
Q 1481 -109 1013 -844 
L 513 -844 
Q 928 -128 1133 580 
Q 1338 1288 1338 2009 
Q 1338 2731 1133 3434 
Q 928 4138 513 4856 
z
" transform="scale(0.015625)"/>
      </defs>
      <use xlink:href="#DejaVuSans-54"/>
      <use xlink:href="#DejaVuSans-69" x="57.958984"/>
      <use xlink:href="#DejaVuSans-6d" x="85.742188"/>
      <use xlink:href="#DejaVuSans-65" x="183.154297"/>
      <use xlink:href="#DejaVuSans-20" x="244.677734"/>
      <use xlink:href="#DejaVuSans-28" x="276.464844"/>
      <use xlink:href="#DejaVuSans-73" x="315.478516"/>
      <use xlink:href="#DejaVuSans-29" x="367.578125"/>
     </g>
    </g>
   </g>
   <g id="matplotlib.axis_2">
    <g id="ytick_1">
     <g id="line2d_10">
      <defs>
       <path id="mea55754dff" d="M 0 0 
L -3.5 0 
" style="stroke: #000000; stroke-width: 0.8"/>
      </defs>
      <g>
       <use xlink:href="#mea55754dff" x="71.84" y="357.309027" style="stroke: #000000; stroke-width: 0.8"/>
      </g>
     </g>
     <g id="text_11">
      <!-- −20000 -->
      <g transform="translate(24.647813 361.108246) scale(0.1 -0.1)">
       <defs>
        <path id="DejaVuSans-2212" d="M 678 2272 
L 4684 2272 
L 4684 1741 
L 678 1741 
L 678 2272 
z
" transform="scale(0.015625)"/>
       </defs>
       <use xlink:href="#DejaVuSans-2212"/>
       <use xlink:href="#DejaVuSans-32" x="83.789062"/>
       <use xlink:href="#DejaVuSans-30" x="147.412109"/>
       <use xlink:href="#DejaVuSans-30" x="211.035156"/>
       <use xlink:href="#DejaVuSans-30" x="274.658203"/>
       <use xlink:href="#DejaVuSans-30" x="338.28125"/>
      </g>
     </g>
    </g>
    <g id="ytick_2">
     <g id="line2d_11">
      <g>
       <use xlink:href="#mea55754dff" x="71.84" y="278.864513" style="stroke: #000000; stroke-width: 0.8"/>
      </g>
     </g>
     <g id="text_12">
      <!-- −10000 -->
      <g transform="translate(24.647813 282.663732) scale(0.1 -0.1)">
       <use xlink:href="#DejaVuSans-2212"/>
       <use xlink:href="#DejaVuSans-31" x="83.789062"/>
       <use xlink:href="#DejaVuSans-30" x="147.412109"/>
       <use xlink:href="#DejaVuSans-30" x="211.035156"/>
       <use xlink:href="#DejaVuSans-30" x="274.658203"/>
       <use xlink:href="#DejaVuSans-30" x="338.28125"/>
      </g>
     </g>
    </g>
    <g id="ytick_3">
     <g id="line2d_12">
      <g>
       <use xlink:href="#mea55754dff" x="71.84" y="200.42" style="stroke: #000000; stroke-width: 0.8"/>
      </g>
     </g>
     <g id="text_13">
      <!-- 0 -->
      <g transform="translate(58.4775 204.219219) scale(0.1 -0.1)">
       <use xlink:href="#DejaVuSans-30"/>
      </g>
     </g>
    </g>
    <g id="ytick_4">
     <g id="line2d_13">
      <g>
       <use xlink:href="#mea55754dff" x="71.84" y="121.975487" style="stroke: #000000; stroke-width: 0.8"/>
      </g>
     </g>
     <g id="text_14">
      <!-- 10000 -->
      <g transform="translate(33.0275 125.774705) scale(0.1 -0.1)">
       <use xlink:href="#DejaVuSans-31"/>
       <use xlink:href="#DejaVuSans-30" x="63.623047"/>
       <use xlink:href="#DejaVuSans-30" x="127.246094"/>
       <use xlink:href="#DejaVuSans-30" x="190.869141"/>
       <use xlink:href="#DejaVuSans-30" x="254.492188"/>
      </g>
     </g>
    </g>
    <g id="ytick_5">
     <g id="line2d_14">
      <g>
       <use xlink:href="#mea55754dff" x="71.84" y="43.530973" style="stroke: #000000; stroke-width: 0.8"/>
      </g>
     </g>
     <g id="text_15">
      <!-- 20000 -->
      <g transform="translate(33.0275 47.330192) scale(0.1 -0.1)">
       <use xlink:href="#DejaVuSans-32"/>
       <use xlink:href="#DejaVuSans-30" x="63.623047"/>
       <use xlink:href="#DejaVuSans-30" x="127.246094"/>
       <use xlink:href="#DejaVuSans-30" x="190.869141"/>
       <use xlink:href="#DejaVuSans-30" x="254.492188"/>
      </g>
     </g>
    </g>
    <g id="text_16">
     <!-- Amplitude -->
     <g transform="translate(18.568125 226.042656) rotate(-90) scale(0.1 -0.1)">
      <defs>
       <path id="DejaVuSans-41" d="M 2188 4044 
L 1331 1722 
L 3047 1722 
L 2188 4044 
z
M 1831 4666 
L 2547 4666 
L 4325 0 
L 3669 0 
L 3244 1197 
L 1141 1197 
L 716 0 
L 50 0 
L 1831 4666 
z
" transform="scale(0.015625)"/>
       <path id="DejaVuSans-70" d="M 1159 525 
L 1159 -1331 
L 581 -1331 
L 581 3500 
L 1159 3500 
L 1159 2969 
Q 1341 3281 1617 3432 
Q 1894 3584 2278 3584 
Q 2916 3584 3314 3078 
Q 3713 2572 3713 1747 
Q 3713 922 3314 415 
Q 2916 -91 2278 -91 
Q 1894 -91 1617 61 
Q 1341 213 1159 525 
z
M 3116 1747 
Q 3116 2381 2855 2742 
Q 2594 3103 2138 3103 
Q 1681 3103 1420 2742 
Q 1159 2381 1159 1747 
Q 1159 1113 1420 752 
Q 1681 391 2138 391 
Q 2594 391 2855 752 
Q 3116 1113 3116 1747 
z
" transform="scale(0.015625)"/>
       <path id="DejaVuSans-6c" d="M 603 4863 
L 1178 4863 
L 1178 0 
L 603 0 
L 603 4863 
z
" transform="scale(0.015625)"/>
       <path id="DejaVuSans-74" d="M 1172 4494 
L 1172 3500 
L 2356 3500 
L 2356 3053 
L 1172 3053 
L 1172 1153 
Q 1172 725 1289 603 
Q 1406 481 1766 481 
L 2356 481 
L 2356 0 
L 1766 0 
Q 1100 0 847 248 
Q 594 497 594 1153 
L 594 3053 
L 172 3053 
L 172 3500 
L 594 3500 
L 594 4494 
L 1172 4494 
z
" transform="scale(0.015625)"/>
       <path id="DejaVuSans-75" d="M 544 1381 
L 544 3500 
L 1119 3500 
L 1119 1403 
Q 1119 906 1312 657 
Q 1506 409 1894 409 
Q 2359 409 2629 706 
Q 2900 1003 2900 1516 
L 2900 3500 
L 3475 3500 
L 3475 0 
L 2900 0 
L 2900 538 
Q 2691 219 2414 64 
Q 2138 -91 1772 -91 
Q 1169 -91 856 284 
Q 544 659 544 1381 
z
M 1991 3584 
L 1991 3584 
z
" transform="scale(0.015625)"/>
       <path id="DejaVuSans-64" d="M 2906 2969 
L 2906 4863 
L 3481 4863 
L 3481 0 
L 2906 0 
L 2906 525 
Q 2725 213 2448 61 
Q 2172 -91 1784 -91 
Q 1150 -91 751 415 
Q 353 922 353 1747 
Q 353 2572 751 3078 
Q 1150 3584 1784 3584 
Q 2172 3584 2448 3432 
Q 2725 3281 2906 2969 
z
M 947 1747 
Q 947 1113 1208 752 
Q 1469 391 1925 391 
Q 2381 391 2643 752 
Q 2906 1113 2906 1747 
Q 2906 2381 2643 2742 
Q 2381 3103 1925 3103 
Q 1469 3103 1208 2742 
Q 947 2381 947 1747 
z
" transform="scale(0.015625)"/>
      </defs>
      <use xlink:href="#DejaVuSans-41"/>
      <use xlink:href="#DejaVuSans-6d" x="68.408203"/>
      <use xlink:href="#DejaVuSans-70" x="165.820312"/>
      <use xlink:href="#DejaVuSans-6c" x="229.296875"/>
      <use xlink:href="#DejaVuSans-69" x="257.080078"/>
      <use xlink:href="#DejaVuSans-74" x="284.863281"/>
      <use xlink:href="#DejaVuSans-75" x="324.072266"/>
      <use xlink:href="#DejaVuSans-64" x="387.451172"/>
      <use xlink:href="#DejaVuSans-65" x="450.927734"/>
     </g>
    </g>
   </g>
   <g id="line2d_15">
    <path d="M 71.84 200.42 
L 73.948963 111.024633 
L 75.354938 65.283637 
L 76.057925 48.818133 
L 76.760913 37.129901 
L 77.4639 30.27385 
L 78.166888 28.038182 
L 78.869875 29.99145 
L 79.572863 35.498255 
L 80.27585 43.750618 
L 81.681825 64.820814 
L 83.0878 85.687055 
L 83.790788 93.955106 
L 84.493776 99.956112 
L 85.196763 103.313537 
L 85.899751 103.894026 
L 86.602738 101.776024 
L 87.305726 97.273309 
L 88.008713 90.903615 
L 90.820663 61.596745 
L 91.523651 57.454874 
L 92.226638 56.082095 
L 92.929626 57.996141 
L 93.632613 63.52648 
L 94.335601 72.751554 
L 95.038588 85.545855 
L 95.741576 101.525002 
L 97.147551 140.535458 
L 99.256514 203.447958 
L 100.662489 237.045743 
L 101.365476 248.804576 
L 102.068464 256.46076 
L 102.771451 259.724052 
L 103.474439 258.563073 
L 104.177426 253.205313 
L 104.880414 244.121438 
L 105.583401 231.993917 
L 106.989376 202.20069 
L 108.395351 171.936797 
L 109.098339 159.23663 
L 109.801327 149.391844 
L 110.504314 143.139816 
L 111.207302 140.998281 
L 111.910289 143.249639 
L 112.613277 149.917422 
L 113.316264 160.781987 
L 114.019252 175.380511 
L 115.425227 212.908367 
L 118.237177 295.290794 
L 118.940164 311.921031 
L 119.643152 325.484088 
L 120.346139 335.540674 
L 121.049127 341.910369 
L 121.752115 344.624549 
L 122.455102 343.965615 
L 123.15809 340.39639 
L 123.861077 334.567962 
L 126.673027 304.876714 
L 127.376015 299.895487 
L 128.079002 297.196996 
L 128.78199 297.149929 
L 129.484977 299.879799 
L 130.187965 305.300314 
L 130.890952 313.097699 
L 132.296927 333.501117 
L 133.702902 354.916469 
L 134.40589 363.678721 
L 135.108878 369.883682 
L 135.811865 372.707685 
L 136.514853 371.468261 
L 137.21784 365.686901 
L 137.920828 355.096892 
L 138.623815 339.706078 
L 139.326803 319.757638 
L 140.732778 268.439238 
L 144.950703 91.523327 
L 145.65369 69.660841 
L 146.356678 52.152025 
L 147.059666 39.36557 
L 147.762653 31.411296 
L 148.465641 28.155849 
L 149.168628 29.207005 
L 149.871616 33.976431 
L 150.574603 41.679683 
L 151.980578 62.302745 
L 153.386553 83.545519 
L 154.089541 92.260705 
L 154.792528 98.818666 
L 155.495516 102.795803 
L 156.198503 104.003849 
L 156.901491 102.482025 
L 157.604478 98.481355 
L 158.307466 92.48035 
L 161.119416 62.859701 
L 161.822404 58.176564 
L 162.525391 56.121318 
L 163.228379 57.250919 
L 163.931366 61.941901 
L 164.634354 70.335463 
L 165.337341 82.345318 
L 166.040329 97.641999 
L 167.446304 135.773877 
L 170.258254 217.764082 
L 170.961241 233.845207 
L 171.664229 246.474774 
L 172.367217 255.095826 
L 173.070204 259.371052 
L 173.773192 259.206318 
L 174.476179 254.774203 
L 175.179167 246.482618 
L 175.882154 234.974808 
L 177.288129 205.769916 
L 178.694104 175.129489 
L 179.397092 161.903744 
L 180.100079 151.337268 
L 180.803067 144.214506 
L 181.506054 141.108103 
L 182.209042 142.347527 
L 182.912029 148.02691 
L 183.615017 157.965829 
L 184.318005 171.772064 
L 185.72398 208.240918 
L 188.53593 291.14108 
L 189.238917 308.391028 
L 189.941905 322.691463 
L 190.644892 333.579561 
L 191.34788 340.788612 
L 192.050867 344.318615 
L 192.753855 344.389215 
L 193.456842 341.431857 
L 194.15983 336.050564 
L 195.565805 321.130417 
L 196.97178 306.273026 
L 197.674768 300.844666 
L 198.377755 297.589219 
L 199.080743 296.914596 
L 199.78373 299.016909 
L 200.486718 303.849091 
L 201.189705 311.144431 
L 202.59568 330.998737 
L 204.001655 352.672956 
L 204.704643 361.874497 
L 205.40763 368.738392 
L 206.110618 372.401751 
L 206.813605 372.13504 
L 207.516593 367.420525 
L 208.21958 357.928738 
L 208.922568 343.620459 
L 209.625556 324.668265 
L 211.031531 274.895221 
L 213.140493 183.287718 
L 214.546468 123.403177 
L 215.952443 74.265534 
L 216.655431 55.721251 
L 217.358418 41.844416 
L 218.061406 32.799764 
L 218.764393 28.501004 
L 219.467381 28.618671 
L 220.170368 32.603652 
L 220.873356 39.71857 
L 222.279331 59.784676 
L 223.685306 81.32554 
L 224.388294 90.448637 
L 225.091281 97.540021 
L 225.794269 102.129025 
L 226.497256 103.972471 
L 227.200244 103.05467 
L 227.903231 99.587422 
L 228.606219 93.986484 
L 230.012194 78.980049 
L 231.418169 64.216791 
L 232.121156 59.031609 
L 232.824144 56.325273 
L 233.527132 56.693963 
L 234.230119 60.553433 
L 234.933107 68.099795 
L 235.636094 79.309516 
L 236.339082 93.900195 
L 237.745057 131.07505 
L 240.557007 213.700656 
L 241.259994 230.472093 
L 241.962982 243.941016 
L 242.665969 253.511247 
L 243.368957 258.790562 
L 244.071944 259.629919 
L 244.774932 256.139138 
L 245.47792 248.67122 
L 246.180907 237.830188 
L 247.586882 209.323452 
L 249.695845 164.704213 
L 250.398832 153.463114 
L 251.10182 145.500996 
L 251.804807 141.43757 
L 252.507795 141.672904 
L 253.210782 146.348197 
L 253.91377 155.353627 
L 254.616757 168.320505 
L 255.319745 184.684031 
L 256.72572 224.353421 
L 258.834683 286.881543 
L 260.240658 319.734105 
L 260.943645 331.422337 
L 261.646633 339.478589 
L 262.34962 343.832259 
L 263.052608 344.655927 
L 263.755595 342.333969 
L 264.458583 337.446876 
L 265.864558 322.95033 
L 267.270533 307.747783 
L 267.97352 301.903667 
L 268.676508 298.114797 
L 269.379495 296.828307 
L 270.082483 298.295219 
L 270.785471 302.515534 
L 271.488458 309.29314 
L 272.191446 318.173059 
L 275.003396 359.960451 
L 275.706383 367.436213 
L 276.409371 371.891862 
L 277.112358 372.574329 
L 277.815346 368.903126 
L 278.518333 360.517407 
L 279.221321 347.291662 
L 279.924308 329.367091 
L 280.627296 307.128072 
L 282.033271 252.444401 
L 285.548209 102.748736 
L 286.251196 79.089871 
L 286.954184 59.541498 
L 287.657171 44.574285 
L 288.360159 34.43141 
L 289.063146 29.073649 
L 289.766134 28.226449 
L 290.469121 31.395607 
L 291.172109 37.867279 
L 291.875096 46.809954 
L 294.687046 88.534591 
L 295.390034 96.135864 
L 296.093022 101.321046 
L 296.796009 103.799893 
L 297.498997 103.501804 
L 298.201984 100.575823 
L 298.904972 95.422019 
L 300.310947 80.799962 
L 301.716922 65.668015 
L 302.419909 60.02001 
L 303.122897 56.686118 
L 303.825884 56.317429 
L 304.528872 59.353232 
L 305.231859 66.060237 
L 305.934847 76.454135 
L 306.637834 90.307437 
L 308.04381 126.454668 
L 310.85576 209.511719 
L 311.558747 226.926401 
L 312.261735 241.203303 
L 312.964722 251.707023 
L 313.66771 257.982584 
L 314.370697 259.82603 
L 315.073685 257.300117 
L 315.776672 250.695089 
L 316.47966 240.560058 
L 317.885635 212.845611 
L 319.994598 167.638038 
L 320.697585 155.753694 
L 321.400573 146.983597 
L 322.10356 141.994526 
L 322.806548 141.233615 
L 323.509535 144.896973 
L 324.212523 152.937536 
L 324.91551 165.057213 
L 325.618498 180.706894 
L 327.024473 219.552617 
L 329.133435 282.504339 
L 330.53941 316.596324 
L 331.242398 329.076846 
L 331.945385 337.972454 
L 332.648373 343.165481 
L 333.351361 344.765749 
L 334.054348 343.11057 
L 334.757336 338.749055 
L 335.460323 332.363672 
L 338.272273 303.07249 
L 338.975261 298.765886 
L 339.678248 296.883218 
L 340.381236 297.71473 
L 341.084223 301.323178 
L 341.787211 307.551672 
L 342.490198 316.000146 
L 343.896173 337.03112 
L 345.302149 357.928738 
L 346.005136 365.969301 
L 346.708124 371.185861 
L 347.411111 372.786129 
L 348.114099 370.142549 
L 348.817086 362.847209 
L 349.520074 350.719688 
L 350.223061 333.838428 
L 350.926049 312.532899 
L 352.332024 259.190629 
L 355.846961 108.62423 
L 356.549949 84.126009 
L 357.252937 63.59708 
L 357.955924 47.555177 
L 358.658912 36.314078 
L 359.361899 29.881628 
L 360.064887 28.046026 
L 360.767874 30.352295 
L 361.470862 36.149345 
L 362.173849 44.605663 
L 365.688787 94.606196 
L 366.391774 100.371868 
L 367.094762 103.486115 
L 367.797749 103.807737 
L 368.500737 101.454402 
L 369.203724 96.76342 
L 369.906712 90.252525 
L 372.015675 67.197683 
L 372.718662 61.126078 
L 373.42165 57.203852 
L 374.124637 56.113473 
L 374.827625 58.349142 
L 375.530612 64.208947 
L 376.2336 73.771333 
L 376.936587 86.871567 
L 378.342562 121.904887 
L 381.8575 223.215976 
L 382.560488 238.269478 
L 383.263475 249.67531 
L 383.966463 256.939272 
L 384.66945 259.794652 
L 385.372438 258.241451 
L 386.075425 252.522846 
L 386.778413 243.133038 
L 387.4814 230.770182 
L 390.996338 158.209007 
L 391.699325 148.66231 
L 392.402313 142.771127 
L 393.1053 141.021814 
L 393.808288 143.673239 
L 394.511276 150.74109 
L 395.214263 161.9665 
L 395.917251 176.870957 
L 397.323226 214.798879 
L 400.135176 296.914596 
L 400.838163 313.29381 
L 401.541151 326.543089 
L 402.244138 336.278053 
L 402.947126 342.302591 
L 403.650113 344.702993 
L 404.353101 343.74597 
L 405.056088 339.949256 
L 405.759076 333.956095 
L 408.571026 304.343291 
L 409.274014 299.550332 
L 409.977001 297.079329 
L 410.679989 297.283285 
L 411.382976 300.264177 
L 412.085964 305.920026 
L 412.788951 313.913522 
L 414.194926 334.505207 
L 415.600901 355.795048 
L 416.303889 364.361189 
L 417.006876 370.291594 
L 417.709864 372.77044 
L 418.412851 371.138794 
L 419.115839 364.925989 
L 419.818827 353.89669 
L 420.521814 338.074432 
L 421.224802 317.73377 
L 422.630777 265.819191 
L 426.848702 89.373947 
L 427.551689 67.88015 
L 428.254677 50.787091 
L 428.957664 38.439924 
L 429.660652 30.92494 
L 430.363639 28.077404 
L 431.066627 29.49725 
L 431.769615 34.564765 
L 432.472602 42.495506 
L 433.878577 63.306835 
L 435.284552 84.416254 
L 435.98754 92.951017 
L 436.690527 99.289333 
L 437.393515 103.023292 
L 438.096502 103.980315 
L 438.79949 102.215314 
L 439.502477 98.010688 
L 440.205465 91.852793 
L 443.017415 62.341968 
L 443.720402 57.87063 
L 444.42339 56.082095 
L 445.126378 57.533319 
L 445.829365 62.553768 
L 446.532353 71.276798 
L 447.23534 83.600431 
L 447.938328 99.179511 
L 449.344303 137.672234 
L 451.453265 200.780845 
L 452.85924 235.147386 
L 453.562228 247.431797 
L 454.265215 255.668471 
L 454.968203 259.535785 
L 455.67119 258.978829 
L 456.374178 254.170181 
L 457.077166 245.556973 
L 457.780153 233.79814 
L 459.186128 204.35007 
L 460.592103 173.842999 
L 461.295091 160.813365 
L 461.998078 150.537134 
L 462.701066 143.759528 
L 463.404053 141.037503 
L 464.107041 142.676994 
L 464.810028 148.756443 
L 465.513016 159.071897 
L 466.216003 173.191909 
L 467.621978 210.100053 
L 470.433929 292.819792 
L 471.136916 309.826563 
L 471.839904 323.828908 
L 472.542891 334.38754 
L 473.245879 341.259279 
L 473.948866 344.459815 
L 474.651854 344.232326 
L 475.354841 341.03179 
L 476.057829 335.470074 
L 477.463804 320.400883 
L 478.869779 305.700381 
L 479.572766 300.452443 
L 480.275754 297.416641 
L 480.978741 296.99304 
L 481.681729 299.346376 
L 482.384717 304.413891 
L 483.087704 311.913187 
L 484.493679 331.994982 
L 485.899654 353.575068 
L 486.602642 362.611876 
L 487.305629 369.216904 
L 488.008617 372.550796 
L 488.711604 371.899706 
L 489.414592 366.753746 
L 490.117579 356.830515 
L 490.820567 342.082947 
L 491.523554 322.730685 
L 492.929529 272.330085 
L 497.147455 94.810152 
L 497.850442 72.398554 
L 498.55343 54.262183 
L 499.256417 40.824638 
L 499.959405 32.21143 
L 500.662392 28.336271 
L 501.36538 28.830471 
L 502.068367 33.129231 
L 502.771355 40.487326 
L 504.17733 60.788766 
L 505.583305 82.227652 
L 506.286293 91.186015 
L 506.98928 98.065599 
L 507.692268 102.411425 
L 508.395255 104.003849 
L 509.098243 102.84287 
L 509.80123 99.155978 
L 510.504218 93.39815 
L 511.910193 78.250515 
L 513.316168 63.659835 
L 514.019155 58.670764 
L 514.722143 56.223295 
L 515.42513 56.897918 
L 516.128118 61.086855 
L 516.831105 68.970529 
L 517.534093 80.501872 
L 518.23708 95.382797 
L 519.643056 132.949874 
L 522.455006 215.347991 
L 523.157993 231.844872 
L 523.860981 244.984328 
L 524.563968 254.178025 
L 525.266956 259.049429 
L 525.969943 259.488719 
L 526.672931 255.61356 
L 527.375918 247.816175 
L 528.078906 236.708432 
L 529.484881 207.903607 
L 530.890856 177.090602 
L 531.593844 163.566768 
L 532.296831 152.59238 
L 532.999819 144.959729 
L 533.702806 141.280681 
L 534.405794 141.916082 
L 535.108781 146.991442 
L 535.811769 156.373406 
L 536.514756 169.677595 
L 537.920731 205.479671 
L 540.732681 288.599478 
L 541.435669 306.202426 
L 542.138656 320.934306 
L 542.841644 332.30876 
L 543.544632 340.019856 
L 544.247619 344.051904 
L 544.950607 344.569638 
L 545.653594 341.988813 
L 546.356582 336.897764 
L 547.762557 322.220796 
L 549.168532 307.14376 
L 549.871519 301.464378 
L 550.574507 297.887308 
L 551.277494 296.843996 
L 551.980482 298.561931 
L 552.683469 303.033268 
L 553.386457 310.022674 
L 554.792432 329.508291 
L 556.198407 351.284488 
L 556.901395 360.737052 
L 557.604382 367.977481 
L 558.30737 372.119351 
L 559.010357 372.425285 
L 559.713345 368.338325 
L 560.416332 359.513318 
L 561.11932 345.848283 
L 561.822307 327.515801 
L 562.525295 304.915936 
L 563.93127 249.722377 
L 567.446207 100.442468 
L 568.149195 77.136603 
L 568.852183 57.988297 
L 569.55517 43.452529 
L 570.258158 33.748942 
L 570.961145 28.814783 
L 571.664133 28.359804 
L 572.36712 31.85843 
L 573.070108 38.588969 
L 573.773095 47.712066 
L 576.585045 89.311191 
L 577.288033 96.708509 
L 577.99102 101.666202 
L 578.694008 103.886182 
L 579.396995 103.33707 
L 580.099983 100.191445 
L 580.802971 94.857218 
L 582.208946 80.070428 
L 583.614921 65.079681 
L 584.317908 59.612098 
L 585.020896 56.521385 
L 585.723883 56.44294 
L 586.426871 59.816054 
L 587.129858 66.852527 
L 587.832846 77.575892 
L 588.535833 91.727282 
L 589.941808 128.29027 
L 592.753759 211.206121 
L 593.456746 228.361936 
L 594.159734 242.325059 
L 594.862721 252.452246 
L 595.565709 258.335584 
L 596.268696 259.778963 
L 596.971684 256.860827 
L 597.674671 249.910643 
L 598.377659 239.485368 
L 599.783634 211.441454 
L 601.892596 166.445681 
L 602.595584 154.820204 
L 603.298571 146.363886 
L 604.001559 141.743504 
L 604.704546 141.382659 
L 605.407534 145.453929 
L 606.110522 153.87887 
L 606.813509 166.343703 
L 607.516497 182.275784 
L 608.922472 221.466663 
L 611.031434 284.26934 
L 612.437409 317.867125 
L 613.140397 330.033869 
L 613.843384 338.592166 
L 614.546372 343.455726 
L 615.249359 344.742216 
L 615.952347 342.820325 
L 616.655334 338.239166 
L 617.358322 331.712582 
L 619.467285 308.673428 
L 620.170272 302.593979 
L 620.87326 298.491331 
L 621.576247 296.843996 
L 622.279235 297.92653 
L 622.982222 301.786 
L 623.68521 308.234139 
L 624.388197 316.855191 
L 627.903135 366.573324 
L 628.606122 371.491795 
L 629.30911 372.723374 
L 630.012098 369.671882 
L 630.715085 361.945098 
L 631.418073 349.378286 
L 632.12106 332.073427 
L 632.824048 310.399208 
L 634.230023 256.507827 
L 637.74496 106.255206 
L 638.447948 82.086452 
L 639.150935 61.941901 
L 639.853923 46.339287 
L 640.55691 35.529633 
L 641.259898 29.528628 
L 641.962885 28.093093 
L 642.665873 30.752362 
L 643.368861 36.816123 
L 644.071848 45.476397 
L 646.883798 87.334389 
L 647.586786 95.233752 
L 648.289773 100.771935 
L 648.992761 103.627315 
L 649.695748 103.697915 
L 650.398736 101.11709 
L 651.101723 96.237842 
L 651.804711 89.593591 
L 653.913673 66.577971 
L 654.616661 60.671099 
L 655.319649 56.984207 
L 656.022636 56.176229 
L 656.725624 58.725675 
L 657.428611 64.930636 
L 658.131599 74.82249 
L 658.834586 88.228657 
L 660.240561 123.716955 
L 663.755499 224.714266 
L 664.458486 239.469679 
L 665.161474 250.514666 
L 665.864461 257.386406 
L 666.567449 259.833874 
L 667.270437 257.888451 
L 667.973424 251.816845 
L 668.676412 242.121103 
L 669.379399 229.530759 
L 672.894337 157.204918 
L 673.597324 147.971998 
L 674.300312 142.433816 
L 675.003299 141.076726 
L 675.706287 144.136062 
L 676.409274 151.596135 
L 677.112262 163.182389 
L 677.815249 178.384936 
L 679.221224 216.689392 
L 682.033175 298.514864 
L 682.736162 314.635212 
L 683.43915 327.578556 
L 684.142137 336.976209 
L 684.845125 342.671281 
L 685.548112 344.742216 
L 686.2511 343.510637 
L 686.954087 339.478589 
L 687.657075 333.328539 
L 690.469025 303.817713 
L 691.172012 299.220865 
L 691.875 296.985196 
L 692.577988 297.440174 
L 692.577988 297.440174 
" clip-path="url(#p8d69ad08d1)" style="fill: none; stroke: #000000; stroke-width: 0.5; stroke-linecap: square"/>
   </g>
   <g id="patch_3">
    <path d="M 71.84 390.04 
L 71.84 10.8 
" style="fill: none; stroke: #000000; stroke-width: 0.8; stroke-linejoin: miter; stroke-linecap: square"/>
   </g>
   <g id="patch_4">
    <path d="M 691.875 390.04 
L 691.875 10.8 
" style="fill: none; stroke: #000000; stroke-width: 0.8; stroke-linejoin: miter; stroke-linecap: square"/>
   </g>
   <g id="patch_5">
    <path d="M 71.84 390.04 
L 691.875 390.04 
" style="fill: none; stroke: #000000; stroke-width: 0.8; stroke-linejoin: miter; stroke-linecap: square"/>
   </g>
   <g id="patch_6">
    <path d="M 71.84 10.8 
L 691.875 10.8 
" style="fill: none; stroke: #000000; stroke-width: 0.8; stroke-linejoin: miter; stroke-linecap: square"/>
   </g>
  </g>
 </g>
 <defs>
  <clipPath id="p8d69ad08d1">
   <rect x="71.84" y="10.8" width="620.035" height="379.24"/>
  </clipPath>
 </defs>
</svg>
